<?xml version="1.0" standalone="no"?>
<!DOCTYPE svg PUBLIC "-//W3C//DTD SVG 1.1//EN" "http://www.w3.org/Graphics/SVG/1.1/DTD/svg11.dtd" >
<!--
2013-9-30: Created.
-->
<svg>
<metadata>
Created by iconfont
</metadata>
<defs>

<font id="iconfont" horiz-adv-x="1024" >
  <font-face
    font-family="iconfont"
    font-weight="500"
    font-stretch="normal"
    units-per-em="1024"
    ascent="896"
    descent="-128"
  />
    <missing-glyph />
    
    <glyph glyph-name="icon_stroke_svg_medal4" unicode="&#59173;" d="M0 384a512 512 0 1 0 1024 0A512 512 0 1 0 0 384zM512 896a512 512 0 1 0 0-1024A512 512 0 0 0 512 896z m0-64a448 448 0 1 1 0-896A448 448 0 0 1 512 832zM256 384a256 256 0 0 1 512 0h64A320 320 0 0 0 192 384h64zM192 576h192v-64H192zM640 576h192v-64h-192z"  horiz-adv-x="1024" />

    
    <glyph glyph-name="icon_stroke_svg_medal2" unicode="&#59174;" d="M0 384a512 512 0 1 0 1024 0A512 512 0 1 0 0 384zM512 896a512 512 0 1 0 0-1024A512 512 0 0 0 512 896z m0-64a448 448 0 1 1 0-896A448 448 0 0 1 512 832zM288 608l75.2-120.512 137.856-34.24-91.392-108.8 9.984-141.696L288 256.128l-131.648-53.376 9.984 141.696-91.392 108.8 137.856 34.24zM736 608l75.2-120.512 137.856-34.24-91.392-108.8 9.984-141.696-131.648 53.376-131.648-53.376 9.984 141.696-91.392 108.8 137.856 34.24z"  horiz-adv-x="1024" />

    
    <glyph glyph-name="icon_stroke_svg_medal3" unicode="&#59175;" d="M0 384a512 512 0 1 0 1024 0A512 512 0 1 0 0 384zM512 896a512 512 0 1 0 0-1024A512 512 0 0 0 512 896z m0-64a448 448 0 1 1 0-896A448 448 0 0 1 512 832zM512 768l53.696-86.08 98.496-24.448-65.28-77.696 7.104-101.248L512 516.672l-94.08-38.144 7.168 101.248-65.28 77.696 98.496 24.448zM288 416l53.696-86.08 98.496-24.448-65.28-77.696 7.104-101.248-94.016 38.144-94.08-38.144 7.168 101.248-65.28 77.696 98.496 24.448zM736 416l53.696-86.08 98.496-24.448-65.28-77.696 7.104-101.248-94.016 38.144-94.08-38.144 7.168 101.248-65.28 77.696 98.496 24.448z"  horiz-adv-x="1024" />

    
    <glyph glyph-name="icon_stroke_svg_medal1" unicode="&#59176;" d="M0 384a512 512 0 1 0 1024 0A512 512 0 1 0 0 384zM512 896a512 512 0 1 0 0-1024A512 512 0 0 0 512 896z m0-64a448 448 0 1 1 0-896A448 448 0 0 1 512 832zM512 736l118.144-189.44 216.64-53.76-143.616-170.88 15.744-222.72L512 183.04l-206.912-83.84 15.744 222.72L177.28 492.8l216.64 53.76z"  horiz-adv-x="1024" />

    
    <glyph glyph-name="icon_stroke_svg_hotup" unicode="&#59170;" d="M437.056 853.504a96 96 0 0 0 149.888 0l398.08-497.536A32 32 0 0 0 960 304h-192v-336a96 96 0 0 0-96-96h-320A96 96 0 0 0 256-32V304H64a32 32 0 0 0-24.96 51.968L437.056 853.504z m99.904-39.936a32 32 0 0 1-49.92 0L130.56 368H288a32 32 0 0 0 32-32v-368a32 32 0 0 1 32-32h320a32 32 0 0 1 32 32V336a32 32 0 0 0 32 32h157.44L536.96 813.568z"  horiz-adv-x="1024" />

    
    <glyph glyph-name="icon_stroke_svg_hot" unicode="&#59171;" d="M352-128c-64 96-52.544 179.456 0 256 57.408 83.712 64 160 64 160s64-64 64-128c64 64 108.032 169.664 96 224 96-192 199.424-309.888 95.232-512C1152 128 808.832 652.032 736.64 705.024 768 640 736 544 716.672 519.808 640 768 430.4 896 430.4 896c24.064-161.152-87.68-337.024-195.008-468.8-3.968 64.064-8 108.608-41.856 170.048C185.984 480.64 120 404.608 96 288c-32.512-158.464 69.376-352 256-416z"  horiz-adv-x="1024" />

    
    <glyph glyph-name="icon_stroke_svg_hotdown" unicode="&#59172;" d="M437.056-91.968a96 96 0 0 1 149.888 0l398.08 497.536A32 32 0 0 1 960 457.536h-192V793.6A96 96 0 0 1 672 889.6h-320A96 96 0 0 1 256 793.6v-336H64a32 32 0 0 1-24.96-51.968l398.016-497.536z m99.904 40a32 32 0 0 0-49.92 0L130.56 393.536H288a32 32 0 0 1 32 32V793.6a32 32 0 0 0 32 32h320a32 32 0 0 0 32-32v-368a32 32 0 0 1 32-32h157.44l-356.48-445.504z"  horiz-adv-x="1024" />

    
    <glyph glyph-name="icon_stroke_svg_add" unicode="&#59164;" d="M560 432V832h-96v-400H64v-96h400V-64h96V336H960v96z"  horiz-adv-x="1024" />

    
    <glyph glyph-name="icon_stroke_svg_coin" unicode="&#59165;" d="M512 896a512 512 0 1 0 0-1024A512 512 0 0 0 512 896z m0-96a416 416 0 1 1 0-832 416 416 0 0 1 0 832z m0-144.448L783.552 384 512 112.448 240.448 384 512 655.552zM512 519.68L376.256 384 512 248.256 647.744 384 512 519.744z"  horiz-adv-x="1024" />

    
    <glyph glyph-name="icon_stroke_svg_rb" unicode="&#59166;" d="M96 64v-96h832v832H832V64z"  horiz-adv-x="1024" />

    
    <glyph glyph-name="icon_stroke_svg_lb" unicode="&#59167;" d="M928 64v-96h-832v832H192V64z"  horiz-adv-x="1024" />

    
    <glyph glyph-name="icon_stroke_svg_rt" unicode="&#59168;" d="M96 704V800h832v-832H832V704z"  horiz-adv-x="1024" />

    
    <glyph glyph-name="icon_stroke_svg_lt" unicode="&#59169;" d="M928 704V800h-832v-832H192V704z"  horiz-adv-x="1024" />

    
    <glyph glyph-name="radio_stroke_svg_disableii" unicode="&#59159;" d="M512 896c277.44 0 503.36-221.184 511.744-496.064L1024 384c0-277.44-221.184-503.36-496.064-511.744L512-128c-282.752 0-512 229.76-512 512C0 661.44 221.184 887.36 496.064 895.744L512 896z m0-96l-14.912-0.256A416.32 416.32 0 0 1 96 384a416.32 416.32 0 0 1 401.088-415.744L512-32l14.912 0.256a416.384 416.384 0 0 1 400.832 400.832L928 384l-0.256 14.912A416.32 416.32 0 0 1 512 800zM512 640a256.192 256.192 0 0 0 255.68-243.2L768 384a256.192 256.192 0 0 0-243.2-255.68L512 128c-141.44 0-256 114.88-256 256a256.192 256.192 0 0 0 243.2 255.68L512 640z"  horiz-adv-x="1024" />

    
    <glyph glyph-name="radio_stroke_svg_disablei" unicode="&#59160;" d="M512 896c277.44 0 503.36-221.184 511.744-496.064L1024 384c0-277.44-221.184-503.36-496.064-511.744L512-128c-282.752 0-512 229.76-512 512C0 661.44 221.184 887.36 496.064 895.744L512 896z m0-96l-14.912-0.256A416.32 416.32 0 0 1 96 384c0-229.312 186.24-416 416-416l14.912 0.256A416.32 416.32 0 0 1 928 384l-0.256 14.912A416.32 416.32 0 0 1 512 800z"  horiz-adv-x="1024" />

    
    <glyph glyph-name="radio_stroke_svg_normal" unicode="&#59161;" d="M512 896c277.44 0 503.36-221.184 511.744-496.064L1024 384c0-277.44-221.184-503.36-496.064-511.744L512-128c-282.752 0-512 229.76-512 512C0 661.44 221.184 887.36 496.064 895.744L512 896z m0-96l-14.912-0.256A416.32 416.32 0 0 1 96 384c0-229.312 186.24-416 416-416l14.912 0.256A416.32 416.32 0 0 1 928 384l-0.256 14.912A416.32 416.32 0 0 1 512 800z"  horiz-adv-x="1024" />

    
    <glyph glyph-name="radio_stroke_svg_select" unicode="&#59162;" d="M512 896c277.44 0 503.36-221.184 511.744-496.064L1024 384c0-277.44-221.184-503.36-496.064-511.744L512-128c-282.752 0-512 229.76-512 512C0 661.44 221.184 887.36 496.064 895.744L512 896z m0-96l-14.912-0.256A416.32 416.32 0 0 1 96 384a416.32 416.32 0 0 1 401.088-415.744L512-32l14.912 0.256a416.384 416.384 0 0 1 400.832 400.832L928 384l-0.256 14.912A416.32 416.32 0 0 1 512 800zM512 640a256.192 256.192 0 0 0 255.68-243.2L768 384a256.192 256.192 0 0 0-243.2-255.68L512 128c-141.44 0-256 114.88-256 256a256.192 256.192 0 0 0 243.2 255.68L512 640z"  horiz-adv-x="1024" />

    
    <glyph glyph-name="radio_stroke_svg_hover" unicode="&#59163;" d="M512 896c277.44 0 503.36-221.184 511.744-496.064L1024 384c0-277.44-221.184-503.36-496.064-511.744L512-128c-282.752 0-512 229.76-512 512C0 661.44 221.184 887.36 496.064 895.744L512 896z m0-96l-14.912-0.256A416.32 416.32 0 0 1 96 384c0-229.312 186.24-416 416-416l14.912 0.256A416.32 416.32 0 0 1 928 384l-0.256 14.912A416.32 416.32 0 0 1 512 800z"  horiz-adv-x="1024" />

    
    <glyph glyph-name="icon_stroke_svg_devide" unicode="&#59154;" d="M1024 320v-384H0V320h1024z m-96-96h-832v-192h832v192zM256 160v-64H192v64h64z m576 0v-64h-192v64h192z m192 640v-384H0v384h1024zM928 704h-832v-192h832V704zM256 640v-64H192V640h64z m576 0v-64h-192V640h192z"  horiz-adv-x="1024" />

    
    <glyph glyph-name="icon_stroke_svg_error" unicode="&#59155;" d="M1024 320v-384H0V320h1024z m-96-96h-832v-192h832v192zM256 160v-64H192v64h64z m576 0v-64h-192v64h192z m-320 640v-384H0v384h512z m444.224 0L1024 732.224 899.712 608 1024 483.776 956.224 416 832 540.288 707.776 416 640 483.776 764.224 608 640 732.224 707.776 800 832 675.776 956.224 800zM416 704h-320v-192h320V704zM256 640v-64H192V640h64z"  horiz-adv-x="1024" />

    
    <glyph glyph-name="icon_stroke_svg_free" unicode="&#59156;" d="M832 640v-96A160 160 0 0 0 992 384v-128a160 160 0 0 0-149.504-159.68L832 96a160 160 0 0 0-160-160h-448A160 160 0 0 0 64 96V640h768z m-96-96h-576v-448a64 64 0 0 1 64-64h448a64 64 0 0 1 64 64v448zM832 448v-256a64 64 0 0 1 64 64V384a64 64 0 0 1-64 64zM288 832v-128H192V832h96z m192 0v-128H384V832h96z m192 0v-128H576V832h96z"  horiz-adv-x="1024" />

    
    <glyph glyph-name="icon_stroke_svg_pc" unicode="&#59157;" d="M960 800V256h64v-288H0V256h64V800h896z m-32-640h-832V64h832v96z m-64 544h-704v-448h704V704z"  horiz-adv-x="1024" />

    
    <glyph glyph-name="icon_stroke_svg_overview" unicode="&#59158;" d="M448 320v-384H64V320h384z m512 0v-384H576V320h384z m-608-96h-192v-192h192v192z m512 0h-192v-192h192v192zM448 832v-384H64V832h384z m512 0v-384H576V832h384zM352 736h-192v-192h192v192z m512 0h-192v-192h192v192z"  horiz-adv-x="1024" />

    
    <glyph glyph-name="icon_stroke_svg_user" unicode="&#59153;" d="M512 896a512 512 0 1 0 0-1024A512 512 0 0 0 512 896z m0-96a416 416 0 1 1 0-832 416 416 0 0 1 0 832z m0-64a192 192 0 0 0 139.392-324.032A287.552 287.552 0 0 0 800 160c0-159.04-576-159.04-576 0 0 108.48 59.968 202.944 148.608 252.096A192 192 0 0 0 512 736z m0-384a192 192 0 0 1-190.72-169.6l-0.768-9.152 1.088-0.768c4.48-2.752 10.432-5.76 17.792-8.832l7.808-3.008c40.768-15.04 101.12-23.936 164.8-23.936 63.744 0 124.032 8.896 164.8 23.936 8.32 3.008 15.232 6.144 20.672 8.96l5.952 3.648-0.704 9.152a192 192 0 0 1-179.456 169.28L512 352zM512 640a96 96 0 1 1 0-192 96 96 0 0 1 0 192z"  horiz-adv-x="1024" />

    
    <glyph glyph-name="icon_fill_svg_clear" unicode="&#59147;" d="M512 896a512 512 0 1 0 0-1024A512 512 0 0 0 512 896z m226.304-195.2L512 474.496 285.696 700.8 195.2 610.304 421.504 384 195.2 157.696l90.496-90.496L512 293.504l226.304-226.304 90.496 90.496L602.496 384l226.304 226.304-90.496 90.496z"  horiz-adv-x="1024" />

    
    <glyph glyph-name="icon_stroke_svg_check" unicode="&#59146;" d="M0 512h128l256-256 512 448h128L384 64z"  horiz-adv-x="1024" />

    
    <glyph glyph-name="icon_stroke_svg_close" unicode="&#59148;" d="M586.304 384L896 693.696 821.696 768 512 458.304 202.304 768 128 693.696 437.696 384 128 74.304 202.304 0 512 309.696 821.696 0 896 74.304z"  horiz-adv-x="1024" />

    
    <glyph glyph-name="icon_stroke_svg_finished" unicode="&#59149;" d="M512 896a512 512 0 1 0 0-1024A512 512 0 0 0 512 896z m0-96a416 416 0 1 1 0-832 416 416 0 0 1 0 832zM832 576l64-64-512-448-256 320 64 64 192-192 448 320z"  horiz-adv-x="1024" />

    
    <glyph glyph-name="icon_stroke_svg_run" unicode="&#59150;" d="M544 895.04A512 512 0 1 0 0.896 352H97.28A416 416 0 1 1 544 798.72V895.04zM433.664 606.848l294.336-196.224a32 32 0 0 0 0-53.248l-294.336-196.224A32 32 0 0 0 384 187.776V580.224a32 32 0 0 0 49.728 26.624zM23.744 538.56l89.408-36.032A414.464 414.464 0 0 1 97.216 416H0.96c2.624 42.496 10.432 83.52 22.784 122.56z m104.32 184.128L196.032 654.72c-23.872-27.904-44.16-58.944-60.096-92.48L46.848 598.272A512.64 512.64 0 0 0 128 722.688zM296.192 848.448l36.8-88.768a416.512 416.512 0 0 1-91.776-59.84L173.312 768A512.64 512.64 0 0 0 296.256 848.448zM480 895.04V798.72c-30.016-2.304-59.136-7.744-87.04-16.128L355.904 871.808A510.144 510.144 0 0 0 480 895.04z"  horiz-adv-x="1024" />

    
    <glyph glyph-name="icon_stroke_svg_search" unicode="&#59151;" d="M447.179705 896a447.179705 447.179705 0 0 0 351.227716-724.111708l208.32186-208.385742a52.511674 52.511674 0 1 0-74.231831-74.231831l-208.32186 208.257977A447.179705 447.179705 0 0 0 0 448.756412 447.179705 447.179705 0 0 0 447.179705 896z m0-95.824222a351.355482 351.355482 0 1 1 0-702.710965 351.355482 351.355482 0 0 1 0 702.710965z"  horiz-adv-x="1025" />

    
    <glyph glyph-name="icon_stroke_svg_unwork" unicode="&#59152;" d="M512 896a512 512 0 1 0 0-1024A512 512 0 0 0 512 896z m0-96a416 416 0 1 1 0-832 416 416 0 0 1 0 832z m-110.08-619.392l144-25.408-25.408-144-144 25.344 25.344 144.064z m101.568 576.256l144-25.408-88.832-504.192-144.064 25.344 88.896 504.256z"  horiz-adv-x="1024" />

    
    <glyph glyph-name="arrow_stroke_svg_down" unicode="&#59131;" d="M896 640h128l-512-512-512 512h128l384-384z"  horiz-adv-x="1024" />

    
    <glyph glyph-name="arrow_stroke_svg_left" unicode="&#59132;" d="M768 0v-128L256 384l512 512v-128L384 384z"  horiz-adv-x="1024" />

    
    <glyph glyph-name="arrow_stroke_svg_right" unicode="&#59133;" d="M256 768V896l512-512-512-512v128l384 384z"  horiz-adv-x="1024" />

    
    <glyph glyph-name="arrow_stroke_svg_up" unicode="&#59134;" d="M128 128H0l512 512 512-512h-128L512 512z"  horiz-adv-x="1024" />

    
    <glyph glyph-name="checkbox_stroke_svg_disablei" unicode="&#59135;" d="M896.384 896C966.848 896 1024 838.72 1024 768.384v-768.768A127.68 127.68 0 0 0 896.384-128H127.616A127.68 127.68 0 0 0 0-0.384V768.384C0 838.848 57.28 896 127.616 896h768.768zM864 800H160a63.936 63.936 0 0 1-63.488-56.448L96 736V32c0-32.768 24.64-59.84 56.448-63.488l7.488-0.448H864a63.936 63.936 0 0 1 63.488 56.448l0.448 7.488V736a63.936 63.936 0 0 1-63.936 63.936zM864 576L448 128 160 384 256 448l192-128 256 256h160z"  horiz-adv-x="1024" />

    
    <glyph glyph-name="checkbox_stroke_svg_hover" unicode="&#59136;" d="M896.384 896C966.848 896 1024 838.72 1024 768.384v-768.768A127.68 127.68 0 0 0 896.384-128H127.616A127.68 127.68 0 0 0 0-0.384V768.384C0 838.848 57.28 896 127.616 896h768.768zM864 800H160a63.936 63.936 0 0 1-63.936-63.936V32c0-35.328 28.608-63.936 63.936-63.936H864a63.936 63.936 0 0 1 63.936 63.936V736a63.936 63.936 0 0 1-63.936 63.936z"  horiz-adv-x="1024" />

    
    <glyph glyph-name="checkbox_stroke_svg_disableii" unicode="&#59137;" d="M896.384 896C966.848 896 1024 838.72 1024 768.384v-768.768A127.68 127.68 0 0 0 896.384-128H127.616A127.68 127.68 0 0 0 0-0.384V768.384C0 838.848 57.28 896 127.616 896h768.768zM864 800H160a63.936 63.936 0 0 1-63.936-63.936V32c0-35.328 28.608-63.936 63.936-63.936H864a63.936 63.936 0 0 1 63.936 63.936V736a63.936 63.936 0 0 1-63.936 63.936z"  horiz-adv-x="1024" />

    
    <glyph glyph-name="checkbox_stroke_svg_normal" unicode="&#59138;" d="M896.384 896C966.848 896 1024 838.72 1024 768.384v-768.768A127.68 127.68 0 0 0 896.384-128H127.616A127.68 127.68 0 0 0 0-0.384V768.384C0 838.848 57.28 896 127.616 896h768.768zM864 800H160a63.936 63.936 0 0 1-63.936-63.936V32c0-35.328 28.608-63.936 63.936-63.936H864a63.936 63.936 0 0 1 63.936 63.936V736a63.936 63.936 0 0 1-63.936 63.936z"  horiz-adv-x="1024" />

    
    <glyph glyph-name="checkbox_stroke_svg_partialp" unicode="&#59139;" d="M896.384 896C966.848 896 1024 838.72 1024 768.384v-768.768A127.68 127.68 0 0 0 896.384-128H127.616A127.68 127.68 0 0 0 0-0.384V768.384C0 838.848 57.28 896 127.616 896h768.768zM864 800H160a63.936 63.936 0 0 1-63.488-56.448L96 736V32c0-32.768 24.64-59.84 56.448-63.488l7.488-0.448H864a63.936 63.936 0 0 1 63.488 56.448l0.448 7.488V736a63.936 63.936 0 0 1-63.936 63.936zM768.32 448c32.64 0 59.52-24.512 63.232-56.512L832 384c0-35.328-29.184-64-63.68-64h-512.64A63.68 63.68 0 0 0 192 384c0 35.328 29.184 64 63.68 64h512.64z"  horiz-adv-x="1024" />

    
    <glyph glyph-name="checkbox_stroke_svg_select" unicode="&#59140;" d="M896.384 896C966.848 896 1024 838.72 1024 768.384v-768.768A127.68 127.68 0 0 0 896.384-128H127.616A127.68 127.68 0 0 0 0-0.384V768.384C0 838.848 57.28 896 127.616 896h768.768zM864 800H160a63.936 63.936 0 0 1-63.488-56.448L96 736V32c0-32.768 24.64-59.84 56.448-63.488l7.488-0.448H864a63.936 63.936 0 0 1 63.488 56.448l0.448 7.488V736a63.936 63.936 0 0 1-63.936 63.936zM864 576L448 128 160 384 256 448l192-128 256 256h160z"  horiz-adv-x="1024" />

    
    <glyph glyph-name="icon_stroke_svg_hide" unicode="&#59141;" d="M976 576a48 48 0 0 0 48-48c0-108.672-63.872-201.856-156.672-265.792-6.528-4.48-13.248-8.96-20.096-13.184l1.216-2.944 32.832-90.24a48 48 0 1 0-90.24-32.768l-30.08 82.816c-60.8-24.128-128.96-39.552-201.024-44.288a12.352 12.352 0 0 0 0.064-1.6V64a48 48 0 0 0-96 0v96l0.064 1.6a665.472 665.472 0 0 0-199.488 43.712l-29.952-82.24a48 48 0 1 0-90.24 32.832l32.896 90.24 0.832 2.048a490.432 490.432 0 0 0-21.44 14.08C63.872 326.08 0 419.264 0 528a48 48 0 0 0 96 0c0-68.096 39.936-134.912 115.2-186.752C286.08 289.536 392.32 256 512 256s225.856 33.536 300.8 85.248c75.264 51.84 115.2 118.656 115.2 186.752a48 48 0 0 0 48 48z"  horiz-adv-x="1024" />

    
    <glyph glyph-name="icon_stroke_svg_phone" unicode="&#59142;" d="M198.4 896h627.2c38.912 0 70.4-32.768 70.4-73.152v-877.696c0-40.384-31.488-73.152-70.4-73.152H198.4c-38.912 0-70.4 32.768-70.4 73.152V822.848C128 863.232 159.488 896 198.4 896z m25.6-96v-768h576v768h-576z"  horiz-adv-x="1024" />

    
    <glyph glyph-name="icon_stroke_svg_password" unicode="&#59143;" d="M640 896a192 192 0 0 0 192-192v-192h32a64 64 0 0 0 64-64v-512a64 64 0 0 0-64-64h-704a64 64 0 0 0-64 64V448a64 64 0 0 0 64 64H192V704a192 192 0 0 0 192 192h256z m192-480H192v-448h640v448zM576 256v-128H448v128h128z m64 544H384C320 800 288 768 288 704v-192h448V704c0 64-32 96-96 96z"  horiz-adv-x="1024" />

    
    <glyph glyph-name="icon_stroke_svg_code" unicode="&#59144;" d="M512 896c75.776-45.44 143.808-77.44 212.8-100.032 88.96-31.488 163.008-49.152 235.2-55.552V320c0-288-384-448-448-448s-448 160-448 448V740.416c72.32 6.4 146.496 23.936 234.688 55.424C367.68 818.368 435.968 850.432 512 896z m0-110.72c-62.08-34.048-121.472-60.288-182.272-80.256-60.288-21.504-115.84-37.376-169.728-47.808V320c0-98.432 66.112-185.408 160.64-254.464 45.568-33.28 93.248-58.88 132.48-75.968 19.648-8.512 36.288-14.464 48.64-18.112 4.608-1.344 8-2.24 10.24-2.752 2.24 0.512 5.632 1.408 10.24 2.752 12.352 3.648 28.992 9.6 48.64 18.112a705.6 705.6 0 0 1 132.48 75.968C797.888 134.592 864 221.568 864 320V657.28a1195.648 1195.648 0 0 0-170.112 47.808A1062.528 1062.528 0 0 0 512 785.28zM704 576l64-96-288-320-192 192 64 96 128-96L704 576z"  horiz-adv-x="1024" />

    
    <glyph glyph-name="icon_stroke_svg_show" unicode="&#59145;" d="M512 752c136.64 0 262.4-38.08 355.328-102.208C960.128 585.792 1024 492.672 1024 384c0-108.672-63.872-201.792-156.672-265.792C774.4 54.08 648.64 16 512 16s-262.4 38.08-355.328 102.208C63.872 182.208 0 275.328 0 384c0 108.672 63.936 201.856 156.672 265.792C249.6 713.92 375.36 752 512 752z m0-96c-119.68 0-225.856-33.536-300.8-85.248C135.872 518.912 96 452.096 96 384s39.936-134.912 115.2-186.752c74.944-51.712 181.12-85.248 300.8-85.248s225.856 33.536 300.8 85.248c75.264 51.84 115.2 118.656 115.2 186.752s-39.936 134.912-115.2 186.752C737.92 622.464 631.68 656 512 656z m0-32a240 240 0 1 0 0-480 240 240 0 0 0 0 480z m0-96a144 144 0 1 1 0-288 144 144 0 0 1 0 288z"  horiz-adv-x="1024" />

    


  </font>
</defs>
</svg>
